# AST/ASF file generated using VICON BodyLanguage
# -----------------------------------------------
:version 1.10
:name VICON
:units
  mass 1.0
  length 0.45
  angle deg
:documentation
   .ast/.asf automatically generated from VICON data using
   VICON BodyBuilder and BodyLanguage model FoxedUp or BRILLIANT.MOD
:root
   order TX TY TZ RX RY RZ
   axis XYZ
   position 0 0 0  
   orientation 0 0 0 
:bonedata
  begin
     id 1 
     name lhipjoint
     direction 0.440178 -0.822639 0.359871 
     length 2.53113 
     axis 0 0 0  XYZ
  end
  begin
     id 2 
     name lfemur
     direction 0.34202 -0.939693 0  
     length 7.88132  
     axis 0 0 20  XYZ
    dof rx ry rz
    limits (-160.0 20.0)
           (-70.0 70.0)
           (-60.0 70.0)
  end
  begin
     id 3 
     name ltibia
     direction 0.34202 -0.939693 0   
     length 8.43783   
     axis 0 0 20   XYZ
    dof rx
    limits (-10.0 170.0)
  end
  begin
     id 4 
     name lfoot
     direction 0.0886351 -0.243523 0.965837   
     length 2.63414   
     axis -90 7.62852e-016 20   XYZ
    dof rx rz
    limits (-45.0 90.0)
           (-70.0 20.0)
  end
  begin
     id 5 
     name ltoes
     direction 1.53703e-011 -4.21717e-011 1   
     length 1.31427   
     axis -90 7.62852e-016 20   XYZ
    dof rx
    limits (-90.0 20.0)
  end
  begin
     id 6 
     name rhipjoint
     direction -0.399779 -0.839773 0.367367   
     length 2.47948  
     axis 0 0 0  XYZ 
  end
  begin
     id 7 
     name rfemur
     direction -0.34202 -0.939693 0   
     length 7.74806   
     axis 0 0 -20   XYZ
    dof rx ry rz
    limits (-160.0 20.0)
           (-70.0 70.0)
           (-70.0 60.0)
  end
  begin
     id 8 
     name rtibia
     direction -0.34202 -0.939693 0   
     length 8.74432   
     axis 0 0 -20   XYZ
    dof rx
    limits (-10.0 170.0)
 end
 begin
     id 9 
     name rfoot
     direction -0.108514 -0.298139 0.948334   
     length 2.66102  
     axis -90 -7.62852e-016 -20   XYZ
    dof rx rz
    limits (-45.0 90.0)
           (-20.0 70.0)
  end
  begin
     id 10 
     name rtoes
     direction -1.53392e-011 -4.22077e-011 1   
     length 1.31983   
     axis -90 -7.62852e-016 -20   XYZ
    dof rx
    limits (-90.0 20.0)
  end
  begin
     id 11 
     name lowerback
     direction 0.0113257 0.999866 0.0118602   
     length 2.58694   
     axis 0 0 0   XYZ
    dof rx ry rz
    limits (-20.0 45.0)
           (-30.0 30.0)
           (-30.0 30.0)
  end
  begin
     id 12 
     name upperback
     direction -0.0164747 0.995193 -0.0965375   
     length 2.52368   
     axis 0 0 0   XYZ
    dof rx ry rz
    limits (-20.0 45.0)
           (-30.0 30.0)
           (-30.0 30.0)
  end
  begin
     id 13 
     name thorax
     direction -0.0194301 0.99433 -0.104552   
     length 2.56099   
     axis 0 0 0   XYZ
    dof rx ry rz
    limits (-20.0 45.0)
           (-30.0 30.0)
           (-30.0 30.0)
  end
  begin
     id 14 
     name lowerneck
     direction 0.0148543 0.995587 -0.092657   
     length 1.71582   
     axis 0 0 0   XYZ
    dof rx ry rz
    limits (-20.0 45.0)
           (-30.0 30.0)
           (-30.0 30.0)
  end
  begin
     id 15 
     name upperneck
     direction -0.0135467 0.993656 -0.111639   
     length 1.68937   
     axis 0 0 0   XYZ
    dof rx ry rz
    limits (-20.0 45.0)
           (-30.0 30.0)
           (-30.0 30.0)
  end
  begin
     id 16
     name head
     direction -0.00615349 0.999547 -0.029448  
     length 1.7462  
     axis 0 0 0   XYZ
    dof rx ry rz
    limits (-20.0 45.0)
           (-30.0 30.0)
           (-30.0 30.0)
  end
  begin
     id 17 
     name lclavicle
     direction 0.988267 0.149885 0.0293713  
     length 4.47222  
     axis 0 0 0   XYZ
    dof ry rz
    limits (-20.0 10.0)
           (0.0 20.0)
  end
  begin
     id 18 
     name lhumerus
     direction 1 -4.48986e-011 -1.14833e-027   
     length 5.37148   
     axis 180 -30 -90   XYZ
    dof rx ry rz
    limits (-60.0 90.0)
           (-90.0 90.0)
           (-90.0 90.0)
  end
  begin
     id 19
     name lradius
     direction 0.999998 0.00170963 -0.000987055   
     length 3.94212   
     axis 180 -30 -90   XYZ
    dof rx
    limits (-10.0 170.0)
  end
  begin
     id 20
     name lwrist
     direction 0.999998 7.53149e-005 -0.00194706   
     length 1.97106   
     axis 4.65056e-015 90 90   XYZ
    dof ry
    limits (-180.0 0.0)
 end
  begin
     id 21 
     name lhand
     direction 1 -4.48973e-011 -1.31746e-026   
     length 1.17917   
     axis 8.4065e-015 90 90   XYZ
    dof rx rz
    limits (-90.0 90.0)
           (-45.0 45.0)
  end
  begin
     id 22 
     name lfingers
     direction 1 -4.49107e-011 -2.63492e-026   
     length 0.950679   
     axis 1.6813e-014 90 90   XYZ
    dof rx
    limits (0.0 90.0)
  end
  begin
     id 23
     name lthumb
     direction 0.707107 -6.35048e-011 0.707107   
     length 1.36499   
     axis -90 45 2.85299e-015   XYZ
    dof rx rz
    limits (-45.0 45.0)
           (-45.0 45.0)
  end
  begin
     id 24 
     name rclavicle
     direction -0.996699 0.0642895 -0.0495725   
     length 4.62611  
     axis 0 0 0   XYZ 
    dof ry rz
    limits (-10.0 20.0)
           (-20.0 0.0)
  end
  begin
     id 25 
     name rhumerus
     direction -1 -4.48919e-011 -2.41059e-027  
     length 5.4981   
     axis 180 30 90   XYZ
    dof rx ry rz
    limits (-90.0 60.0)
           (-90.0 90.0)
           (-90.0 90.0)
  end
  begin
     id 26 
     name rradius
     direction -0.999999 0.00118101 -0.000681858   
     length 3.48381   
     axis 180 30 90   XYZ
    dof rx
    limits (-10.0 170.0)
  end
  begin
     id 27 
     name rwrist
     direction -0.999999 0.000321823 -0.00132288   
     length 1.7419   
     axis 4.65056e-015 -90 -90   XYZ
    dof ry
    limits (-180.0 0.0)
  end
  begin
     id 28
     name rhand
     direction -1 -4.49022e-011 -1.31746e-026   
     length 1.34932   
     axis 8.4065e-015 -90 -90   XYZ
    dof rx rz
    limits (-90.0 90.0)
           (-45.0 45.0)
  end
  begin
     id 29
     name rfingers
     direction -1 -4.49178e-011 -2.63492e-026   
     length 1.08785   
     axis 1.6813e-014 -90 -90   XYZ
    dof rx
    limits (0.0 90.0)
  end
  begin
     id 30
     name rthumb
     direction -0.707107 -6.34713e-011 0.707107   
     length 1.56195   
     axis -90 -45 -2.85299e-015   XYZ
    dof rx rz
    limits (-45.0 45.0)
           (-45.0 45.0)
  end
:hierarchy
  begin
    root lhipjoint rhipjoint lowerback
    lhipjoint lfemur
    lfemur ltibia
    ltibia lfoot
    lfoot ltoes
    rhipjoint rfemur
    rfemur rtibia
    rtibia rfoot
    rfoot rtoes
    lowerback upperback
    upperback thorax
    thorax lowerneck lclavicle rclavicle
    lowerneck upperneck
    upperneck head
    lclavicle lhumerus
    lhumerus lradius
    lradius lwrist
    lwrist lhand lthumb
    lhand lfingers
    rclavicle rhumerus
    rhumerus rradius
    rradius rwrist
    rwrist rhand rthumb
    rhand rfingers
  end

#!OML:ASF X:\für Bonn\!DataBase\2005_08_10_Bjorn_Final\c3d\bjorn.ASF
:FULLY-SPECIFIED
:DEGREES
17
root 0.803214 19.0707 2.67545 -176.417 -0.631755 -179.761
lowerback 1.24147 2.15687 4.94143
upperback 6.53822 2.4156 -1.69115
thorax 6.4297 1.34422 -4.44946
lowerneck -15.7151 -6.2358 -0.429392
upperneck 12.7719 -9.00327 3.54306
head 6.65226 -4.09024 0.27522
rclavicle -8.94531e-015 -5.66536e-015
rhumerus 72.7818 -2.06558 -79.1354
rradius 7.61852
rwrist 46.2162
rhand -11.007 10.0884
rfingers 7.12502
rthumb 15.0137 -19.3473
lclavicle -8.94531e-015 -5.66536e-015
lhumerus 79.6219 -12.5146 60.7214
lradius 11.4744
lwrist -38.2376
lhand -13.6337 -6.12916
lfingers 7.12502
lthumb 12.4823 23.4781
rfemur -15.099 -11.2098 16.3901
rtibia 34.068
rfoot -19.4885 13.1635
rtoes -17.3791
lfemur -14.2975 9.05642 -19.3552
ltibia 33.2938
lfoot -19.7842 -10.9715
ltoes -17.27
18
root 0.806244 19.0493 2.70343 -176.504 -0.703994 -179.899
lowerback 1.62811 2.12413 4.8251
upperback 6.62351 2.36953 -1.70754
thorax 6.28807 1.30473 -4.41478
lowerneck -15.7015 -6.23313 -0.40645
upperneck 12.6918 -8.99115 3.50593
head 6.62091 -4.08745 0.263344
rclavicle -1.49585e-014 -3.08116e-015
rhumerus 72.9191 -2.06112 -79.1531
rradius 7.41745
rwrist 46.1884
rhand -11.1486 10.0969
rfingers 7.12502
rthumb 14.8773 -19.3489
lclavicle -1.49585e-014 -3.08116e-015
lhumerus 79.5971 -12.5887 60.721
lradius 11.5184
lwrist -37.999
lhand -13.6531 -6.23213
lfingers 7.12502
lthumb 12.4636 23.3762
rfemur -15.3793 -10.9824 16.2541
rtibia 34.6247
rfoot -19.9241 12.8677
rtoes -17.392
lfemur -14.6 8.64217 -19.534
ltibia 33.8621
lfoot -20.0265 -10.4662
ltoes -18.2425
19
root 0.810056 19.0221 2.73102 -176.554 -0.766622 -180.019
lowerback 1.97299 2.10515 4.72368
upperback 6.70883 2.33975 -1.73002
thorax 6.17403 1.27534 -4.39257
lowerneck -15.7213 -6.22149 -0.360541
upperneck 12.6165 -8.9718 3.46572
head 6.59548 -4.07967 0.246553
rclavicle 4.32605e-014 -3.35946e-014
rhumerus 73.0926 -2.10413 -79.1769
rradius 7.19094
rwrist 46.1957
rhand -11.3058 10.0973
rfingers 7.12502
rthumb 14.7259 -19.3597
lclavicle 4.32605e-014 -3.35946e-014
lhumerus 79.6412 -12.6795 60.6737
lradius 11.5345
lwrist -37.7286
lhand -13.6741 -6.30162
lfingers 7.12502
lthumb 12.4434 23.308
rfemur -15.7535 -10.7382 16.1449
rtibia 35.2829
rfoot -20.3862 12.6104
rtoes -17.0047
lfemur -15.0138 8.18603 -19.7012
ltibia 34.5666
lfoot -20.2561 -9.92842
ltoes -19.0212
20
root 0.812818 18.9908 2.76176 -176.575 -0.830425 -180.141
lowerback 2.33354 2.07493 4.62954
upperback 6.7689 2.29752 -1.75509
thorax 6.02329 1.23985 -4.378
lowerneck -15.6881 -6.19502 -0.291516
upperneck 12.5154 -8.92963 3.38888
head 6.54954 -4.06429 0.219266
rclavicle 2.78547e-014 5.46658e-015
rhumerus 73.2397 -2.12939 -79.2035
rradius 6.99827
rwrist 46.2948
rhand -11.4726 10.1284
rfingers 7.12502
rthumb 14.5652 -19.3402
lclavicle 2.78547e-014 5.46658e-015
lhumerus 79.6948 -12.7566 60.4588
lradius 11.5476
lwrist -37.3282
lhand -13.6659 -6.46737
lfingers 7.12502
lthumb 12.4512 23.1417
rfemur -16.2418 -10.5229 16.0465
rtibia 36.0607
rfoot -20.9143 12.2825
rtoes -16.867
lfemur -15.558 7.77508 -19.8763
ltibia 35.4273
lfoot -20.5105 -9.44326
ltoes -19.908
21
root 0.81584 18.9524 2.79506 -176.587 -0.876306 -180.245
lowerback 2.70591 2.05989 4.54853
upperback 6.82647 2.27477 -1.77723
thorax 5.86644 1.21441 -4.36706
lowerneck -15.6574 -6.17685 -0.215374
upperneck 12.4033 -8.90045 3.31615
head 6.50068 -4.0547 0.190941
rclavicle 4.62174e-015 -1.15295e-014
rhumerus 73.3746 -2.19099 -79.2222
rradius 6.84996
rwrist 46.4655
rhand -11.6553 10.1942
rfingers 7.12502
rthumb 14.3892 -19.2871
lclavicle 4.62174e-015 -1.15295e-014
lhumerus 79.7072 -12.8489 60.369
lradius 11.5966
lwrist -37.022
lhand -13.7293 -6.61052
lfingers 7.12502
lthumb 12.3901 23.0023
rfemur -16.8255 -10.289 15.9655
rtibia 36.9717
rfoot -21.4245 12.0272
rtoes -16.4915
lfemur -16.2032 7.34405 -20.0288
ltibia 36.4533
lfoot -20.7912 -8.96635
ltoes -20.6731
22
root 0.819355 18.9059 2.83164 -176.591 -0.909884 -180.349
lowerback 3.10306 2.04566 4.45234
upperback 6.88002 2.25256 -1.79059
thorax 5.69031 1.18742 -4.33886
lowerneck -15.6584 -6.15638 -0.0928551
upperneck 12.3105 -8.86208 3.14374
head 6.45618 -4.04531 0.123848
rclavicle 2.25621e-014 -2.73329e-014
rhumerus 73.5043 -2.26264 -79.2257
rradius 6.76106
rwrist 46.599
rhand -11.7444 10.2542
rfingers 7.12502
rthumb 14.3033 -19.2332
lclavicle 2.25621e-014 -2.73329e-014
lhumerus 79.7772 -12.9471 60.0573
lradius 11.6233
lwrist -36.4571
lhand -13.9005 -6.72706
lfingers 7.12502
lthumb 12.2251 22.8957
rfemur -17.5062 -10.064 15.8954
rtibia 38.0227
rfoot -21.9986 11.7477
rtoes -16.1298
lfemur -16.9681 6.98014 -20.1745
ltibia 37.6475
lfoot -21.0598 -8.60378
ltoes -21.4412
23
root 0.822628 18.8519 2.87052 -176.565 -0.957134 -180.438
lowerback 3.49536 2.02596 4.38495
upperback 6.9181 2.22445 -1.81472
thorax 5.50242 1.15969 -4.33809
lowerneck -15.6906 -6.12742 0.101144
upperneck 12.2703 -8.82204 2.91005
head 6.42773 -4.03552 0.0246595
rclavicle 4.54471e-014 -2.0773e-014
rhumerus 73.5519 -2.31467 -79.2608
rradius 6.81434
rwrist 46.8698
rhand -11.8099 10.2957
rfingers 7.12502
rthumb 14.2402 -19.1961
lclavicle 4.54471e-014 -2.0773e-014
lhumerus 79.8419 -13.0622 59.7054
lradius 11.6233
lwrist -35.9379
lhand -14.2766 -6.84212
lfingers 7.12502
lthumb 11.8624 22.8019
rfemur -18.2963 -9.8976 15.8545
rtibia 39.1967
rfoot -22.612 11.4516
rtoes -16.1115
lfemur -17.8669 6.61278 -20.2953
ltibia 39.0109
lfoot -21.3577 -8.30816
ltoes -22.1416
24
root 0.826318 18.7904 2.90991 -176.531 -0.992002 -180.526
lowerback 3.88445 2.0061 4.27912
upperback 6.95377 2.19454 -1.81078
thorax 5.31049 1.12821 -4.2858
lowerneck -15.6881 -6.09358 0.25439
upperneck 12.1794 -8.7588 2.65346
head 6.37766 -4.01939 -0.0707839
rclavicle 2.64881e-014 -1.3418e-014
rhumerus 73.5407 -2.33622 -79.2639
rradius 7.01515
rwrist 47.1142
rhand -11.7513 10.3249
rfingers 7.12502
rthumb 14.2967 -19.1629
lclavicle 2.64881e-014 -1.3418e-014
lhumerus 79.897 -13.1667 59.2754
lradius 11.6273
lwrist -35.2421
lhand -14.813 -6.90272
lfingers 7.12502
lthumb 11.3451 22.7704
rfemur -19.1527 -9.74258 15.8234
rtibia 40.4554
rfoot -23.2687 11.0894
rtoes -16.4693
lfemur -18.8478 6.23156 -20.4045
ltibia 40.5157
lfoot -21.6683 -8.04443
ltoes -22.9433
